<?xml version="1.0" standalone="no"?>
<!DOCTYPE svg PUBLIC "-//W3C//DTD SVG 20010904//EN"
 "http://www.w3.org/TR/2001/REC-SVG-20010904/DTD/svg10.dtd">
<svg version="1.0" xmlns="http://www.w3.org/2000/svg"
 width="580.000000pt" height="706.000000pt" viewBox="0 0 580.000000 706.000000"
 preserveAspectRatio="xMidYMid meet">

<g transform="translate(0.000000,706.000000) scale(0.100000,-0.100000)"
fill="#000000" stroke="none">
<path d="M4205 7049 c-99 -4 -250 -12 -335 -18 -85 -7 -474 -16 -865 -21 -502
-6 -748 -13 -840 -24 -71 -8 -213 -22 -315 -31 -102 -9 -223 -22 -270 -28
l-85 -12 0 -170 c0 -162 1 -172 26 -226 15 -31 46 -74 69 -97 36 -34 52 -42
99 -49 84 -12 234 -6 425 16 94 11 259 25 366 31 107 5 283 17 390 25 239 19
1358 35 1665 23 116 -4 311 -17 435 -29 155 -15 307 -22 490 -23 l265 -1 27
115 c16 71 27 146 27 196 1 78 0 82 -33 120 -63 74 -204 132 -371 153 -207 26
-842 65 -960 59 -16 -1 -111 -5 -210 -9z"/>
<path d="M3135 5980 c-115 -4 -316 -12 -445 -18 -129 -7 -390 -16 -580 -22
-637 -19 -1002 -89 -1368 -265 -398 -191 -623 -510 -703 -995 -26 -158 -28
-364 -4 -505 21 -129 84 -314 147 -438 180 -350 508 -604 839 -646 328 -43
625 -1 859 120 207 107 347 272 395 464 54 221 32 535 -54 750 -69 171 -164
276 -316 350 -132 65 -241 89 -395 88 -432 -4 -673 -259 -595 -627 29 -138
119 -281 199 -316 44 -20 262 -48 274 -35 4 4 7 109 7 235 0 126 3 231 6 234
3 3 43 11 88 17 65 9 93 8 129 -2 126 -35 223 -232 194 -391 -17 -95 -82 -216
-145 -274 -172 -157 -481 -189 -715 -73 -291 143 -468 560 -393 924 66 323
267 523 644 644 175 56 366 82 752 101 116 6 284 17 375 26 244 22 2021 16
2350 -9 465 -35 620 -49 780 -72 90 -13 165 -23 166 -22 1 1 11 29 24 62 28
75 37 202 20 287 -23 122 -117 261 -222 330 -77 51 -143 69 -286 79 -147 10
-1715 9 -2027 -1z"/>
<path d="M5043 4946 c-75 -35 -160 -125 -213 -226 -59 -113 -59 -103 24 -635
65 -412 143 -1221 187 -1920 15 -245 22 -275 88 -348 49 -54 96 -71 211 -75
125 -5 186 12 318 86 l82 47 -5 175 c-16 478 -118 1669 -185 2162 -53 384 -89
495 -197 600 -71 70 -93 87 -164 127 -67 37 -79 38 -146 7z"/>
<path d="M2835 4909 c-115 -17 -227 -60 -282 -105 l-23 -19 40 -149 c75 -282
139 -581 150 -691 5 -60 14 -227 20 -370 6 -143 15 -300 20 -350 21 -193 23
-591 5 -975 -9 -206 -17 -564 -18 -795 -1 -406 0 -422 21 -485 34 -101 54
-127 125 -160 146 -70 347 -18 461 119 54 64 66 102 78 236 13 145 4 1852 -12
2200 -23 528 -76 935 -176 1347 l-45 186 -37 6 c-76 11 -269 14 -327 5z"/>
<path d="M4028 4896 c-103 -38 -196 -126 -245 -232 -22 -48 -28 -79 -34 -183
-21 -333 -7 -633 61 -1326 27 -275 58 -606 70 -735 48 -563 130 -1600 140
-1765 12 -223 18 -281 37 -374 27 -138 74 -210 158 -248 54 -23 263 -22 321 2
45 18 99 67 120 108 33 62 28 405 -11 772 -35 321 -60 715 -75 1165 -7 201
-21 409 -35 545 -69 628 -76 729 -84 1285 -9 553 -11 573 -86 725 -39 78 -142
210 -192 245 -40 28 -97 34 -145 16z"/>
</g>
</svg>
